<svg xmlns="http://www.w3.org/2000/svg" xmlns:xlink="http://www.w3.org/1999/xlink" width="0" height="0" style="display:none;"><symbol viewBox="0 0 24 24" id="price-tag-3-line"><path d="M10.9042 2.10025L20.8037 3.51446L22.2179 13.414L13.0255 22.6063C12.635 22.9969 12.0019 22.9969 11.6113 22.6063L1.71184 12.7069C1.32131 12.3163 1.32131 11.6832 1.71184 11.2926L10.9042 2.10025ZM11.6113 4.22157L3.83316 11.9997L12.3184 20.485L20.0966 12.7069L19.036 5.28223L11.6113 4.22157ZM13.7327 10.5855C12.9516 9.80448 12.9516 8.53815 13.7327 7.7571C14.5137 6.97606 15.78 6.97606 16.5611 7.7571C17.3421 8.53815 17.3421 9.80448 16.5611 10.5855C15.78 11.3666 14.5137 11.3666 13.7327 10.5855Z"></path></symbol><symbol viewBox="0 0 24 24" id="pencil-line"><path d="M15.7279 9.57627L14.3137 8.16206L5 17.4758V18.89H6.41421L15.7279 9.57627ZM17.1421 8.16206L18.5563 6.74785L17.1421 5.33363L15.7279 6.74785L17.1421 8.16206ZM7.24264 20.89H3V16.6473L16.435 3.21231C16.8256 2.82179 17.4587 2.82179 17.8492 3.21231L20.6777 6.04074C21.0682 6.43126 21.0682 7.06443 20.6777 7.45495L7.24264 20.89Z"></path></symbol><symbol viewBox="0 0 24 24" id="calendar-line"><path d="M9 1V3H15V1H17V3H21C21.5523 3 22 3.44772 22 4V20C22 20.5523 21.5523 21 21 21H3C2.44772 21 2 20.5523 2 20V4C2 3.44772 2.44772 3 3 3H7V1H9ZM20 11H4V19H20V11ZM7 5H4V9H20V5H17V7H15V5H9V7H7V5Z"></path></symbol><symbol viewBox="0 0 24 24" id="rss-line"><path d="M3 17C5.20914 17 7 18.7909 7 21H3V17ZM3 10C9.07513 10 14 14.9249 14 21H12C12 16.0294 7.97056 12 3 12V10ZM3 3C12.9411 3 21 11.0589 21 21H19C19 12.1634 11.8366 5 3 5V3Z"></path></symbol><symbol viewBox="0 0 24 24" id="heart-line"><path d="M12.001 4.52853C14.35 2.42 17.98 2.49 20.2426 4.75736C22.5053 7.02472 22.583 10.637 20.4786 12.993L11.9999 21.485L3.52138 12.993C1.41705 10.637 1.49571 7.01901 3.75736 4.75736C6.02157 2.49315 9.64519 2.41687 12.001 4.52853ZM18.827 6.1701C17.3279 4.66794 14.9076 4.60701 13.337 6.01687L12.0019 7.21524L10.6661 6.01781C9.09098 4.60597 6.67506 4.66808 5.17157 6.17157C3.68183 7.66131 3.60704 10.0473 4.97993 11.6232L11.9999 18.6543L19.0201 11.6232C20.3935 10.0467 20.319 7.66525 18.827 6.1701Z"></path></symbol><symbol viewBox="0 0 24 24" id="star-fill"><path d="M12.0006 18.26L4.94715 22.2082L6.52248 14.2799L0.587891 8.7918L8.61493 7.84006L12.0006 0.5L15.3862 7.84006L23.4132 8.7918L17.4787 14.2799L19.054 22.2082L12.0006 18.26Z"></path></symbol><symbol viewBox="0 0 24 24" id="star-half-fill"><path d="M12.0006 15.968L16.2473 18.3451L15.2988 13.5717L18.8719 10.2674L14.039 9.69434L12.0006 5.27502V15.968ZM12.0006 18.26L4.94715 22.2082L6.52248 14.2799L0.587891 8.7918L8.61493 7.84006L12.0006 0.5L15.3862 7.84006L23.4132 8.7918L17.4787 14.2799L19.054 22.2082L12.0006 18.26Z"></path></symbol><symbol viewBox="0 0 24 24" id="star-line"><path d="M12.0006 18.26L4.94715 22.2082L6.52248 14.2799L0.587891 8.7918L8.61493 7.84006L12.0006 0.5L15.3862 7.84006L23.4132 8.7918L17.4787 14.2799L19.054 22.2082L12.0006 18.26ZM12.0006 15.968L16.2473 18.3451L15.2988 13.5717L18.8719 10.2674L14.039 9.69434L12.0006 5.27502L9.96214 9.69434L5.12921 10.2674L8.70231 13.5717L7.75383 18.3451L12.0006 15.968Z"></path></symbol><symbol viewBox="0 0 24 24" id="close-fill"><path d="M11.9997 10.5865L16.9495 5.63672L18.3637 7.05093L13.4139 12.0007L18.3637 16.9504L16.9495 18.3646L11.9997 13.4149L7.04996 18.3646L5.63574 16.9504L10.5855 12.0007L5.63574 7.05093L7.04996 5.63672L11.9997 10.5865Z"></path></symbol><symbol viewBox="0 0 24 24" id="check-fill"><path d="M9.9997 15.1709L19.1921 5.97852L20.6063 7.39273L9.9997 17.9993L3.63574 11.6354L5.04996 10.2212L9.9997 15.1709Z"></path></symbol><symbol viewBox="0 0 24 24" id="arrow-right-s-line"><path d="M13.1717 12.0007L8.22192 7.05093L9.63614 5.63672L16.0001 12.0007L9.63614 18.3646L8.22192 16.9504L13.1717 12.0007Z"></path></symbol><symbol viewBox="0 0 24 24" id="arrow-left-s-line"><path d="M10.8284 12.0007L15.7782 16.9504L14.364 18.3646L8 12.0007L14.364 5.63672L15.7782 7.05093L10.8284 12.0007Z"></path></symbol><symbol viewBox="0 0 24 24" id="arrow-right-s-fill"><path d="M16 12L10 18V6L16 12Z"></path></symbol><symbol viewBox="0 0 24 24" id="arrow-left-s-fill"><path d="M8 12L14 6V18L8 12Z"></path></symbol><symbol viewBox="0 0 24 24" id="arrow-up-s-fill"><path d="M12 8L18 14H6L12 8Z"></path></symbol><symbol viewBox="0 0 24 24" id="arrow-down-s-fill"><path d="M12 16L6 10H18L12 16Z"></path></symbol><symbol viewBox="0 0 24 24" id="search-2-line"><path d="M11 2C15.968 2 20 6.032 20 11C20 15.968 15.968 20 11 20C6.032 20 2 15.968 2 11C2 6.032 6.032 2 11 2ZM11 18C14.8675 18 18 14.8675 18 11C18 7.1325 14.8675 4 11 4C7.1325 4 4 7.1325 4 11C4 14.8675 7.1325 18 11 18ZM19.4853 18.0711L22.3137 20.8995L20.8995 22.3137L18.0711 19.4853L19.4853 18.0711Z"></path></symbol><symbol viewBox="0 0 24 24" id="share-line"><path d="M13.1202 17.0228L8.92129 14.7324C8.19135 15.5125 7.15261 16 6 16C3.79086 16 2 14.2091 2 12C2 9.79086 3.79086 8 6 8C7.15255 8 8.19125 8.48746 8.92118 9.26746L13.1202 6.97713C13.0417 6.66441 13 6.33707 13 6C13 3.79086 14.7909 2 17 2C19.2091 2 21 3.79086 21 6C21 8.20914 19.2091 10 17 10C15.8474 10 14.8087 9.51251 14.0787 8.73246L9.87977 11.0228C9.9583 11.3355 10 11.6629 10 12C10 12.3371 9.95831 12.6644 9.87981 12.9771L14.0788 15.2675C14.8087 14.4875 15.8474 14 17 14C19.2091 14 21 15.7909 21 18C21 20.2091 19.2091 22 17 22C14.7909 22 13 20.2091 13 18C13 17.6629 13.0417 17.3355 13.1202 17.0228ZM6 14C7.10457 14 8 13.1046 8 12C8 10.8954 7.10457 10 6 10C4.89543 10 4 10.8954 4 12C4 13.1046 4.89543 14 6 14ZM17 8C18.1046 8 19 7.10457 19 6C19 4.89543 18.1046 4 17 4C15.8954 4 15 4.89543 15 6C15 7.10457 15.8954 8 17 8ZM17 20C18.1046 20 19 19.1046 19 18C19 16.8954 18.1046 16 17 16C15.8954 16 15 16.8954 15 18C15 19.1046 15.8954 20 17 20Z"></path></symbol><symbol viewBox="0 0 24 24" id="mail-line"><path d="M3 3H21C21.5523 3 22 3.44772 22 4V20C22 20.5523 21.5523 21 21 21H3C2.44772 21 2 20.5523 2 20V4C2 3.44772 2.44772 3 3 3ZM20 7.23792L12.0718 14.338L4 7.21594V19H20V7.23792ZM4.51146 5L12.0619 11.662L19.501 5H4.51146Z"></path></symbol><symbol viewBox="0 0 24 24" id="bookmark-line"><path d="M5 2H19C19.5523 2 20 2.44772 20 3V22.1433C20 22.4194 19.7761 22.6434 19.5 22.6434C19.4061 22.6434 19.314 22.6168 19.2344 22.5669L12 18.0313L4.76559 22.5669C4.53163 22.7136 4.22306 22.6429 4.07637 22.4089C4.02647 22.3293 4 22.2373 4 22.1433V3C4 2.44772 4.44772 2 5 2ZM18 4H6V19.4324L12 15.6707L18 19.4324V4Z"></path></symbol><symbol viewBox="0 0 24 24" id="question-answer-line"><path d="M5.45455 15L1 18.5V3C1 2.44772 1.44772 2 2 2H17C17.5523 2 18 2.44772 18 3V15H5.45455ZM4.76282 13H16V4H3V14.3851L4.76282 13ZM8 17H18.2372L20 18.3851V8H21C21.5523 8 22 8.44772 22 9V22.5L17.5455 19H9C8.44772 19 8 18.5523 8 18V17Z"></path></symbol><symbol viewBox="0 0 24 24" id="pushpin-line"><path d="M13.8273 1.69L22.3126 10.1753L20.8984 11.5895L20.1913 10.8824L15.9486 15.125L15.2415 18.6606L13.8273 20.0748L9.58466 15.8321L4.63492 20.7819L3.2207 19.3677L8.17045 14.4179L3.92781 10.1753L5.34202 8.76107L8.87756 8.05396L13.1202 3.81132L12.4131 3.10422L13.8273 1.69ZM14.5344 5.22554L9.86358 9.89637L7.0417 10.4607L13.5418 16.9609L14.1062 14.139L18.7771 9.46818L14.5344 5.22554Z"></path></symbol><symbol viewBox="0 0 24 24" id="skip-back-line"><path d="M7 4C7.55228 4 8 4.44772 8 5V11.3333L18.2227 4.51823C18.4524 4.36506 18.7628 4.42714 18.916 4.65691C18.9708 4.73904 19 4.83555 19 4.93426V19.0657C19 19.3419 18.7761 19.5657 18.5 19.5657C18.4013 19.5657 18.3048 19.5365 18.2227 19.4818L8 12.6667V19C8 19.5523 7.55228 20 7 20C6.44772 20 6 19.5523 6 19V5C6 4.44772 6.44772 4 7 4ZM17 7.73703L10.6056 12L17 16.263V7.73703Z"></path></symbol><symbol viewBox="0 0 24 24" id="skip-forward-line"><path d="M16 12.6667L5.77735 19.4818C5.54759 19.6349 5.23715 19.5729 5.08397 19.3431C5.02922 19.261 5 19.1645 5 19.0657V4.93426C5 4.65812 5.22386 4.43426 5.5 4.43426C5.59871 4.43426 5.69522 4.46348 5.77735 4.51823L16 11.3333V5C16 4.44772 16.4477 4 17 4C17.5523 4 18 4.44772 18 5V19C18 19.5523 17.5523 20 17 20C16.4477 20 16 19.5523 16 19V12.6667ZM7 7.73703V16.263L13.3944 12L7 7.73703Z"></path></symbol><symbol viewBox="0 0 24 24" id="article-line"><path d="M20 22H4C3.44772 22 3 21.5523 3 21V3C3 2.44772 3.44772 2 4 2H20C20.5523 2 21 2.44772 21 3V21C21 21.5523 20.5523 22 20 22ZM19 20V4H5V20H19ZM7 6H11V10H7V6ZM7 12H17V14H7V12ZM7 16H17V18H7V16ZM13 7H17V9H13V7Z"></path></symbol><symbol viewBox="0 0 24 24" id="stack-line"><path d="M20.0833 15.1999L21.2854 15.9212C21.5221 16.0633 21.5989 16.3704 21.4569 16.6072C21.4146 16.6776 21.3557 16.7365 21.2854 16.7787L12.5144 22.0412C12.1977 22.2313 11.8021 22.2313 11.4854 22.0412L2.71451 16.7787C2.47772 16.6366 2.40093 16.3295 2.54301 16.0927C2.58523 16.0223 2.64413 15.9634 2.71451 15.9212L3.9166 15.1999L11.9999 20.0499L20.0833 15.1999ZM20.0833 10.4999L21.2854 11.2212C21.5221 11.3633 21.5989 11.6704 21.4569 11.9072C21.4146 11.9776 21.3557 12.0365 21.2854 12.0787L11.9999 17.6499L2.71451 12.0787C2.47772 11.9366 2.40093 11.6295 2.54301 11.3927C2.58523 11.3223 2.64413 11.2634 2.71451 11.2212L3.9166 10.4999L11.9999 15.3499L20.0833 10.4999ZM12.5144 1.30864L21.2854 6.5712C21.5221 6.71327 21.5989 7.0204 21.4569 7.25719C21.4146 7.32757 21.3557 7.38647 21.2854 7.42869L11.9999 12.9999L2.71451 7.42869C2.47772 7.28662 2.40093 6.97949 2.54301 6.7427C2.58523 6.67232 2.64413 6.61343 2.71451 6.5712L11.4854 1.30864C11.8021 1.11864 12.1977 1.11864 12.5144 1.30864ZM11.9999 3.33233L5.88723 6.99995L11.9999 10.6676L18.1126 6.99995L11.9999 3.33233Z"></path></symbol><symbol viewBox="0 0 24 24" id="external-link-line"><path d="M10 6V8H5V19H16V14H18V20C18 20.5523 17.5523 21 17 21H4C3.44772 21 3 20.5523 3 20V7C3 6.44772 3.44772 6 4 6H10ZM21 3V11H19L18.9999 6.413L11.2071 14.2071L9.79289 12.7929L17.5849 5H13V3H21Z"></path></symbol><symbol viewBox="0 0 24 24" id="links-fill"><path d="M13.0607 8.11097L14.4749 9.52518C17.2086 12.2589 17.2086 16.691 14.4749 19.4247L14.1214 19.7782C11.3877 22.5119 6.95555 22.5119 4.22188 19.7782C1.48821 17.0446 1.48821 12.6124 4.22188 9.87874L5.6361 11.293C3.68348 13.2456 3.68348 16.4114 5.6361 18.364C7.58872 20.3166 10.7545 20.3166 12.7072 18.364L13.0607 18.0105C15.0133 16.0578 15.0133 12.892 13.0607 10.9394L11.6465 9.52518L13.0607 8.11097ZM19.7782 14.1214L18.364 12.7072C20.3166 10.7545 20.3166 7.58872 18.364 5.6361C16.4114 3.68348 13.2456 3.68348 11.293 5.6361L10.9394 5.98965C8.98678 7.94227 8.98678 11.1081 10.9394 13.0607L12.3536 14.4749L10.9394 15.8891L9.52518 14.4749C6.79151 11.7413 6.79151 7.30911 9.52518 4.57544L9.87874 4.22188C12.6124 1.48821 17.0446 1.48821 19.7782 4.22188C22.5119 6.95555 22.5119 11.3877 19.7782 14.1214Z"></path></symbol><symbol viewBox="0 0 24 24" id="double-quotes-l"><path d="M4.58341 17.3211C3.55316 16.2274 3 15 3 13.0103C3 9.51086 5.45651 6.37366 9.03059 4.82318L9.92328 6.20079C6.58804 8.00539 5.93618 10.346 5.67564 11.822C6.21263 11.5443 6.91558 11.4466 7.60471 11.5105C9.40908 11.6778 10.8312 13.159 10.8312 15C10.8312 16.933 9.26416 18.5 7.33116 18.5C6.2581 18.5 5.23196 18.0095 4.58341 17.3211ZM14.5834 17.3211C13.5532 16.2274 13 15 13 13.0103C13 9.51086 15.4565 6.37366 19.0306 4.82318L19.9233 6.20079C16.588 8.00539 15.9362 10.346 15.6756 11.822C16.2126 11.5443 16.9156 11.4466 17.6047 11.5105C19.4091 11.6778 20.8312 13.159 20.8312 15C20.8312 16.933 19.2642 18.5 17.3312 18.5C16.2581 18.5 15.232 18.0095 14.5834 17.3211Z"></path></symbol><symbol viewBox="0 0 24 24" id="double-quotes-r"><path d="M19.4167 6.67891C20.4469 7.77257 21.0001 9 21.0001 10.9897C21.0001 14.4891 18.5436 17.6263 14.9695 19.1768L14.0768 17.7992C17.4121 15.9946 18.0639 13.6539 18.3245 12.178C17.7875 12.4557 17.0845 12.5533 16.3954 12.4895C14.591 12.3222 13.1689 10.8409 13.1689 9C13.1689 7.067 14.7359 5.5 16.6689 5.5C17.742 5.5 18.7681 5.99045 19.4167 6.67891ZM9.41669 6.67891C10.4469 7.77257 11.0001 9 11.0001 10.9897C11.0001 14.4891 8.54359 17.6263 4.96951 19.1768L4.07682 17.7992C7.41206 15.9946 8.06392 13.6539 8.32447 12.178C7.78747 12.4557 7.08452 12.5533 6.39539 12.4895C4.59102 12.3222 3.16895 10.8409 3.16895 9C3.16895 7.067 4.73595 5.5 6.66895 5.5C7.742 5.5 8.76814 5.99045 9.41669 6.67891Z"></path></symbol><symbol viewBox="0 0 24 24" id="heart-fill"><path d="M12.001 4.52853C14.35 2.42 17.98 2.49 20.2426 4.75736C22.5053 7.02472 22.583 10.637 20.4786 12.993L11.9999 21.485L3.52138 12.993C1.41705 10.637 1.49571 7.01901 3.75736 4.75736C6.02157 2.49315 9.64519 2.41687 12.001 4.52853Z"></path></symbol><symbol viewBox="0 0 24 24" id="cake-line"><path d="M13 6.99993V10.9999L20 10.9999C20.5523 10.9999 21 11.4476 21 11.9999V19.9999L23 19.9999V21.9999H1V19.9999L3 19.9999V11.9999C3 11.4476 3.44772 10.9999 4 10.9999L11 10.9999V6.99993H13ZM19 12.9999H5V19.9999H19V12.9999ZM13.8301 0.401855C14.6586 1.83673 14.1669 3.6715 12.7321 4.49993L11 5.49993C10.1716 4.06505 10.6632 2.23028 12.0981 1.40186L13.8301 0.401855Z"></path></symbol><symbol viewBox="0 0 24 24" id="reply-line"><path d="M11 20L1 12L11 4V9C16.5228 9 21 13.4772 21 19C21 19.2727 20.9891 19.5428 20.9677 19.81C19.5055 17.0364 16.6381 15.119 13.313 15.0053L13 15H10.9999L11 20ZM8.99986 13H10.9999L13.0341 13.0003L13.3814 13.0065C14.6657 13.0504 15.9053 13.3165 17.0568 13.7734C15.5898 12.0749 13.4204 11 11 11H9V8.16125L4.20156 12L8.99992 15.8387L8.99986 13Z"></path></symbol><symbol viewBox="0 0 24 24" id="reply-all-line"><path d="M14 4.5V9C19.5228 9 24 13.4772 24 19C24 19.2727 23.9891 19.5428 23.9677 19.81C22.5055 17.0364 19.6381 15.119 16.313 15.0053L16 15H13.9999L14 19.5L6 12L14 4.5ZM8 4.5V7.237L2.92 12L7.999 16.761L8 19.5L0 12L8 4.5ZM12 9.11646L8.92423 12L11.9999 14.8834L11.9999 13L16.0341 13.0003L16.3814 13.0065C17.6657 13.0504 18.9053 13.3165 20.0568 13.7734C18.5898 12.0749 16.4204 11 14 11H12V9.11646Z"></path></symbol><symbol viewBox="0 0 24 24" id="asterisk"><path d="M12.9998 3L12.9996 10.267L19.294 6.63397L20.294 8.36602L14.0006 11.999L20.294 15.634L19.294 17.366L12.9996 13.732L12.9998 21H10.9998L10.9996 13.732L4.70557 17.366L3.70557 15.634L9.99857 12L3.70557 8.36602L4.70557 6.63397L10.9996 10.267L10.9998 3H12.9998Z"></path></symbol><symbol viewBox="0 0 24 24" id="alert-line"><path d="M12.8659 3.00017L22.3922 19.5002C22.6684 19.9785 22.5045 20.5901 22.0262 20.8662C21.8742 20.954 21.7017 21.0002 21.5262 21.0002H2.47363C1.92135 21.0002 1.47363 20.5525 1.47363 20.0002C1.47363 19.8246 1.51984 19.6522 1.60761 19.5002L11.1339 3.00017C11.41 2.52187 12.0216 2.358 12.4999 2.63414C12.6519 2.72191 12.7782 2.84815 12.8659 3.00017ZM4.20568 19.0002H19.7941L11.9999 5.50017L4.20568 19.0002ZM10.9999 16.0002H12.9999V18.0002H10.9999V16.0002ZM10.9999 9.00017H12.9999V14.0002H10.9999V9.00017Z"></path></symbol><symbol viewBox="0 0 24 24" id="lightbulb-flash-line"><path d="M9.97308 18H14.0269C14.1589 16.7984 14.7721 15.8065 15.7676 14.7226C15.8797 14.6006 16.5988 13.8564 16.6841 13.7501C17.5318 12.6931 18 11.385 18 10C18 6.68629 15.3137 4 12 4C8.68629 4 6 6.68629 6 10C6 11.3843 6.46774 12.6917 7.31462 13.7484C7.40004 13.855 8.12081 14.6012 8.23154 14.7218C9.22766 15.8064 9.84103 16.7984 9.97308 18ZM14 20H10V21H14V20ZM5.75395 14.9992C4.65645 13.6297 4 11.8915 4 10C4 5.58172 7.58172 2 12 2C16.4183 2 20 5.58172 20 10C20 11.8925 19.3428 13.6315 18.2443 15.0014C17.624 15.7748 16 17 16 18.5V21C16 22.1046 15.1046 23 14 23H10C8.89543 23 8 22.1046 8 21V18.5C8 17 6.37458 15.7736 5.75395 14.9992ZM13 10.0048H15.5L11 16.0048V12.0048H8.5L13 6V10.0048Z"></path></symbol><symbol viewBox="0 0 24 24" id="timer-line"><path d="M17.6177 5.9681L19.0711 4.51472L20.4853 5.92893L19.0319 7.38231C20.2635 8.92199 21 10.875 21 13C21 17.9706 16.9706 22 12 22C7.02944 22 3 17.9706 3 13C3 8.02944 7.02944 4 12 4C14.125 4 16.078 4.73647 17.6177 5.9681ZM12 20C15.866 20 19 16.866 19 13C19 9.13401 15.866 6 12 6C8.13401 6 5 9.13401 5 13C5 16.866 8.13401 20 12 20ZM11 8H13V14H11V8ZM8 1H16V3H8V1Z"></path></symbol><symbol viewBox="0 0 24 24" id="mastodon-fill"><path d="M21.2595 13.9898C20.9852 15.4006 18.8033 16.9446 16.2974 17.2439C14.9907 17.3998 13.7041 17.5431 12.3321 17.4802C10.0885 17.3774 8.31809 16.9446 8.31809 16.9446C8.31809 17.163 8.33156 17.371 8.3585 17.5655C8.65019 19.7797 10.5541 19.9124 12.3576 19.9742C14.1779 20.0365 15.7987 19.5254 15.7987 19.5254L15.8735 21.1711C15.8735 21.1711 14.6003 21.8548 12.3321 21.9805C11.0814 22.0493 9.52849 21.9491 7.71973 21.4703C3.79684 20.432 3.12219 16.2504 3.01896 12.0074C2.98749 10.7477 3.00689 9.55981 3.00689 8.56632C3.00689 4.22771 5.84955 2.95599 5.84955 2.95599C7.2829 2.29772 9.74238 2.0209 12.2993 2H12.3621C14.919 2.0209 17.3801 2.29772 18.8133 2.95599C18.8133 2.95599 21.6559 4.22771 21.6559 8.56632C21.6559 8.56632 21.6916 11.7674 21.2595 13.9898ZM18.3029 8.9029C18.3029 7.82924 18.0295 6.97604 17.4805 6.34482C16.9142 5.71359 16.1726 5.39001 15.2522 5.39001C14.187 5.39001 13.3805 5.79937 12.8473 6.61819L12.3288 7.48723L11.8104 6.61819C11.2771 5.79937 10.4706 5.39001 9.40554 5.39001C8.485 5.39001 7.74344 5.71359 7.17719 6.34482C6.62807 6.97604 6.3547 7.82924 6.3547 8.9029V14.1562H8.43597V9.05731C8.43597 7.98246 8.88822 7.4369 9.79281 7.4369C10.793 7.4369 11.2944 8.08408 11.2944 9.36376V12.1547H13.3634V9.36376C13.3634 8.08408 13.8646 7.4369 14.8648 7.4369C15.7694 7.4369 16.2216 7.98246 16.2216 9.05731V14.1562H18.3029V8.9029Z"></path></symbol><symbol viewBox="0 0 24 24" id="message-3-line"><path d="M2 8.99374C2 5.68349 4.67654 3 8.00066 3H15.9993C19.3134 3 22 5.69478 22 8.99374V21H8.00066C4.68659 21 2 18.3052 2 15.0063V8.99374ZM20 19V8.99374C20 6.79539 18.2049 5 15.9993 5H8.00066C5.78458 5 4 6.78458 4 8.99374V15.0063C4 17.2046 5.79512 19 8.00066 19H20ZM14 11H16V13H14V11ZM8 11H10V13H8V11Z"></path></symbol><symbol viewBox="0 0 24 24" id="camera-line"><path d="M9.82843 5L7.82843 7H4V19H20V7H16.1716L14.1716 5H9.82843ZM9 3H15L17 5H21C21.5523 5 22 5.44772 22 6V20C22 20.5523 21.5523 21 21 21H3C2.44772 21 2 20.5523 2 20V6C2 5.44772 2.44772 5 3 5H7L9 3ZM12 18C8.96243 18 6.5 15.5376 6.5 12.5C6.5 9.46243 8.96243 7 12 7C15.0376 7 17.5 9.46243 17.5 12.5C17.5 15.5376 15.0376 18 12 18ZM12 16C13.933 16 15.5 14.433 15.5 12.5C15.5 10.567 13.933 9 12 9C10.067 9 8.5 10.567 8.5 12.5C8.5 14.433 10.067 16 12 16Z"></path></symbol><symbol viewBox="0 0 24 24" id="instagram-line"><path d="M12.001 9C10.3436 9 9.00098 10.3431 9.00098 12C9.00098 13.6573 10.3441 15 12.001 15C13.6583 15 15.001 13.6569 15.001 12C15.001 10.3427 13.6579 9 12.001 9ZM12.001 7C14.7614 7 17.001 9.2371 17.001 12C17.001 14.7605 14.7639 17 12.001 17C9.24051 17 7.00098 14.7629 7.00098 12C7.00098 9.23953 9.23808 7 12.001 7ZM18.501 6.74915C18.501 7.43926 17.9402 7.99917 17.251 7.99917C16.5609 7.99917 16.001 7.4384 16.001 6.74915C16.001 6.0599 16.5617 5.5 17.251 5.5C17.9393 5.49913 18.501 6.0599 18.501 6.74915ZM12.001 4C9.5265 4 9.12318 4.00655 7.97227 4.0578C7.18815 4.09461 6.66253 4.20007 6.17416 4.38967C5.74016 4.55799 5.42709 4.75898 5.09352 5.09255C4.75867 5.4274 4.55804 5.73963 4.3904 6.17383C4.20036 6.66332 4.09493 7.18811 4.05878 7.97115C4.00703 9.0752 4.00098 9.46105 4.00098 12C4.00098 14.4745 4.00753 14.8778 4.05877 16.0286C4.0956 16.8124 4.2012 17.3388 4.39034 17.826C4.5591 18.2606 4.7605 18.5744 5.09246 18.9064C5.42863 19.2421 5.74179 19.4434 6.17187 19.6094C6.66619 19.8005 7.19148 19.9061 7.97212 19.9422C9.07618 19.9939 9.46203 20 12.001 20C14.4755 20 14.8788 19.9934 16.0296 19.9422C16.8117 19.9055 17.3385 19.7996 17.827 19.6106C18.2604 19.4423 18.5752 19.2402 18.9074 18.9085C19.2436 18.5718 19.4445 18.2594 19.6107 17.8283C19.8013 17.3358 19.9071 16.8098 19.9432 16.0289C19.9949 14.9248 20.001 14.5389 20.001 12C20.001 9.52552 19.9944 9.12221 19.9432 7.97137C19.9064 7.18906 19.8005 6.66149 19.6113 6.17318C19.4434 5.74038 19.2417 5.42635 18.9084 5.09255C18.573 4.75715 18.2616 4.55693 17.8271 4.38942C17.338 4.19954 16.8124 4.09396 16.0298 4.05781C14.9258 4.00605 14.5399 4 12.001 4ZM12.001 2C14.7176 2 15.0568 2.01 16.1235 2.06C17.1876 2.10917 17.9135 2.2775 18.551 2.525C19.2101 2.77917 19.7668 3.1225 20.3226 3.67833C20.8776 4.23417 21.221 4.7925 21.476 5.45C21.7226 6.08667 21.891 6.81333 21.941 7.8775C21.9885 8.94417 22.001 9.28333 22.001 12C22.001 14.7167 21.991 15.0558 21.941 16.1225C21.8918 17.1867 21.7226 17.9125 21.476 18.55C21.2218 19.2092 20.8776 19.7658 20.3226 20.3217C19.7668 20.8767 19.2076 21.22 18.551 21.475C17.9135 21.7217 17.1876 21.89 16.1235 21.94C15.0568 21.9875 14.7176 22 12.001 22C9.28431 22 8.94514 21.99 7.87848 21.94C6.81431 21.8908 6.08931 21.7217 5.45098 21.475C4.79264 21.2208 4.23514 20.8767 3.67931 20.3217C3.12348 19.7658 2.78098 19.2067 2.52598 18.55C2.27848 17.9125 2.11098 17.1867 2.06098 16.1225C2.01348 15.0558 2.00098 14.7167 2.00098 12C2.00098 9.28333 2.01098 8.94417 2.06098 7.8775C2.11014 6.8125 2.27848 6.0875 2.52598 5.45C2.78014 4.79167 3.12348 4.23417 3.67931 3.67833C4.23514 3.1225 4.79348 2.78 5.45098 2.525C6.08848 2.2775 6.81348 2.11 7.87848 2.06C8.94514 2.0125 9.28431 2 12.001 2Z"></path></symbol><symbol viewBox="0 0 24 24" id="sparkling-2-line"><path d="M17.0007 1.20825 18.3195 3.68108 20.7923 4.99992 18.3195 6.31876 17.0007 8.79159 15.6818 6.31876 13.209 4.99992 15.6818 3.68108 17.0007 1.20825ZM10.6673 9.33325 15.6673 11.9999 10.6673 14.6666 8.00065 19.6666 5.33398 14.6666.333984 11.9999 5.33398 9.33325 8.00065 4.33325 10.6673 9.33325ZM11.4173 11.9999 9.18905 10.8115 8.00065 8.58325 6.81224 10.8115 4.58398 11.9999 6.81224 13.1883 8.00065 15.4166 9.18905 13.1883 11.4173 11.9999ZM19.6673 16.3333 18.0007 13.2083 16.334 16.3333 13.209 17.9999 16.334 19.6666 18.0007 22.7916 19.6673 19.6666 22.7923 17.9999 19.6673 16.3333Z"></path></symbol><symbol viewBox="0 0 24 24" id="seedling-line"><path d="M5.99805 3C9.48787 3 12.3812 5.55379 12.9112 8.8945C14.0863 7.72389 15.7076 7 17.498 7H21.998V9.5C21.998 13.0899 19.0879 16 15.498 16H12.998V21H10.998V13H8.99805C5.13205 13 1.99805 9.86599 1.99805 6V3H5.99805ZM19.998 9H17.498C15.0128 9 12.998 11.0147 12.998 13.5V14H15.498C17.9833 14 19.998 11.9853 19.998 9.5V9ZM5.99805 5H3.99805V6C3.99805 8.76142 6.23662 11 8.99805 11H10.998V10C10.998 7.23858 8.75947 5 5.99805 5Z"></path></symbol><symbol viewBox="0 0 24 24" id="flower-line"><path d="M11.9999 2.07611L12.4551 2.30879C14.2208 3.21143 15.7328 4.53809 16.8573 6.15473C17.7852 5.71402 18.7788 5.38872 19.8193 5.19758L21 4.98071V12.9998C21 17.9703 16.9706 22 12 22C7.02944 22 3 17.9705 3 13V4.98071L4.18066 5.19758C5.22115 5.38871 6.2147 5.71398 7.14253 6.15465C8.26706 4.53805 9.77902 3.21141 11.5447 2.30879L11.9999 2.07611ZM8.87757 7.16504C10.1073 8.02646 11.1679 9.11266 12 10.3644C12.8322 9.11272 13.893 8.02642 15.1223 7.16515C14.2952 6.01594 13.2302 5.04923 11.9999 4.33741C10.7697 5.0492 9.70468 6.01587 8.87757 7.16504ZM10.8993 12.4338C10.0182 10.7202 8.65593 9.2932 6.99112 8.33225C6.3667 7.97183 5.6999 7.67707 5 7.45728V13C5 16.2899 7.26961 19.0497 10.3285 19.7992C10.1137 18.9004 10 17.9629 10 16.9998C10 15.383 10.3198 13.8411 10.8993 12.4338ZM12.4531 19.9855C16.1079 19.752 19 16.7136 19 12.9998V7.45728C18.3 7.67709 17.6332 7.97187 17.0088 8.33233C14.0127 10.0617 12 13.2963 12 16.9998C12 18.041 12.1588 19.0436 12.4531 19.9855Z"></path></symbol><symbol viewBox="0 0 24 24" id="tree-line"><path d="M6 7C6 3.68629 8.68629 1 12 1C15.3137 1 18 3.68629 18 7C18 7.26214 17.9831 7.5207 17.9504 7.77457C19.77 8.80413 21 10.7575 21 13C21 16.3137 18.3137 19 15 19H13V22H11V19H8.5C5.46243 19 3 16.5376 3 13.5C3 11.2863 4.30712 9.37966 6.19098 8.50704C6.06635 8.02551 6 7.52039 6 7ZM7.00964 10.3319C5.82176 10.8918 5 12.1008 5 13.5C5 15.433 6.567 17 8.5 17H15C17.2091 17 19 15.2091 19 13C19 11.3056 17.9461 9.85488 16.4544 9.27234L15.6129 8.94372C15.7907 8.30337 16 7.67183 16 7C16 4.79086 14.2091 3 12 3C9.79086 3 8 4.79086 8 7C8 8.30783 8.6266 9.46903 9.60019 10.2005L8.39884 11.7995C7.85767 11.3929 7.38716 10.8963 7.00964 10.3319Z"></path></symbol><symbol viewBox="0 0 24 24" id="skull-2-line"><path d="M12 2C17.5228 2 22 6.47715 22 12V15.7639C22 16.5215 21.572 17.214 20.8944 17.5528L18 19V20C18 21.5977 16.7511 22.9037 15.1763 22.9949L14.9499 23.0004C14.9718 22.8926 14.9868 22.7823 14.9943 22.67L15 22.5V22C15 20.9456 14.1841 20.0818 13.1493 20.0055L13 20H11C9.94564 20 9.08183 20.8159 9.00549 21.8507L9 22V22.5C9 22.6714 9.01725 22.8387 9.0501 23.0004L9 23C7.34315 23 6 21.6569 6 20V19L3.10557 17.5528C2.428 17.214 2 16.5215 2 15.7639V12C2 6.47715 6.47715 2 12 2ZM12 4C7.66509 4 4.13546 7.44784 4.00381 11.7508L4 12V15.7639L8 17.7639V19.355L8.07537 19.2711C8.76418 18.5335 9.72777 18.0584 10.7981 18.005L11 18L13.0735 18.0013L13.2964 18.0109C14.2947 18.0846 15.1868 18.5219 15.8452 19.1884L16 19.355V17.7639L20 15.7639V12C20 7.58172 16.4183 4 12 4ZM8 11C9.10457 11 10 11.8954 10 13C10 14.1046 9.10457 15 8 15C6.89543 15 6 14.1046 6 13C6 11.8954 6.89543 11 8 11ZM16 11C17.1046 11 18 11.8954 18 13C18 14.1046 17.1046 15 16 15C14.8954 15 14 14.1046 14 13C14 11.8954 14.8954 11 16 11Z"></path></symbol><symbol viewBox="0 0 24 24" id="facebook-circle-line"><path d="M13.001 19.9381C16.9473 19.446 20.001 16.0796 20.001 12C20.001 7.58172 16.4193 4 12.001 4C7.5827 4 4.00098 7.58172 4.00098 12C4.00098 16.0796 7.05467 19.446 11.001 19.9381V14H9.00098V12H11.001V10.3458C11.001 9.00855 11.1402 8.52362 11.4017 8.03473C11.6631 7.54584 12.0468 7.16216 12.5357 6.9007C12.9184 6.69604 13.3931 6.57252 14.2227 6.51954C14.5519 6.49851 14.9781 6.52533 15.501 6.6V8.5H15.001C14.0837 8.5 13.7052 8.54332 13.4789 8.66433C13.3386 8.73939 13.2404 8.83758 13.1653 8.97793C13.0443 9.20418 13.001 9.42853 13.001 10.3458V12H15.501L15.001 14H13.001V19.9381ZM12.001 22C6.47813 22 2.00098 17.5228 2.00098 12C2.00098 6.47715 6.47813 2 12.001 2C17.5238 2 22.001 6.47715 22.001 12C22.001 17.5228 17.5238 22 12.001 22Z"></path></symbol><symbol viewBox="0 0 24 24" id="spotify-line"><path d="M12.001 2C17.551 2 22.001 6.5 22.001 12C22.001 17.5 17.501 22 12.001 22C6.50098 22 2.00098 17.5 2.00098 12C2.00098 6.5 6.50098 2 12.001 2ZM12.001 4C7.60555 4 4.00098 7.60457 4.00098 12C4.00098 16.3954 7.60555 20 12.001 20C16.3964 20 20.001 16.3954 20.001 12C20.001 7.58572 16.4276 4 12.001 4ZM15.751 16.65C13.401 15.2 10.451 14.8992 6.95014 15.6992C6.60181 15.8008 6.30098 15.55 6.20098 15.25C6.10098 14.8992 6.35098 14.6 6.65098 14.5C10.451 13.6492 13.751 14 16.351 15.6C16.701 15.75 16.7501 16.1492 16.6018 16.45C16.4018 16.7492 16.0518 16.85 15.751 16.65ZM16.7501 13.95C14.051 12.3 9.95098 11.8 6.80098 12.8C6.40181 12.9 5.95098 12.7 5.85098 12.3C5.75098 11.9 5.95098 11.4492 6.35098 11.3492C10.001 10.25 14.501 10.8008 17.601 12.7C17.9018 12.8508 18.051 13.35 17.8018 13.7C17.551 14.05 17.101 14.2 16.7501 13.95ZM6.30098 9.75083C5.80098 9.9 5.30098 9.6 5.15098 9.15C5.00098 8.64917 5.30098 8.15 5.75098 7.99917C9.30098 6.94917 15.151 7.14917 18.8518 9.35C19.301 9.6 19.451 10.2 19.201 10.65C18.9518 11.0008 18.351 11.1492 17.9018 10.9C14.701 9 9.35098 8.8 6.30098 9.75083Z"></path></symbol><symbol viewBox="0 0 24 24" id="reddit-line"><path d="M11.0526 7.8154L11.8042 4.27941C12.0339 3.19898 13.0959 2.50929 14.1764 2.73894L17.3725 3.4183C17.8351 2.90546 18.5509 2.64644 19.275 2.80035C20.3554 3.03 21.0451 4.09204 20.8155 5.17247C20.5858 6.2529 19.5238 6.94259 18.4434 6.71294C17.7193 6.55903 17.1707 6.03124 16.9567 5.3746L13.7605 4.69523L13.0943 7.82978C14.8789 7.96683 16.6522 8.56079 18.2581 9.52961C19.0892 9.06763 20.0992 8.99337 21.007 9.36091C22.1731 9.833 22.9531 10.9459 22.9991 12.2031L22.9996 12.2241C23.0151 13.2277 22.559 14.1657 21.792 14.7742C21.7899 14.8178 21.7871 14.859 21.7836 14.8971C21.7836 18.8949 17.3341 21.9267 11.9852 21.9267C6.65232 21.9267 2.27693 18.9027 2.27987 14.9738C2.27523 14.9134 2.27162 14.853 2.26905 14.7926C1.46701 14.1873 0.984722 13.2277 1.00037 12.1962C1.01955 10.9317 1.78341 9.79777 2.94804 9.30491C3.85909 8.91936 4.881 8.98299 5.72371 9.44381C7.3578 8.46653 9.15777 7.91241 11.0526 7.8154ZM20.3385 13.341C20.7466 13.1382 21.003 12.7207 21.0001 12.2656C20.9789 11.8005 20.6887 11.3897 20.2565 11.2147C19.821 11.0384 19.3226 11.1343 18.9837 11.4597L18.3991 12.0207L17.729 11.5652C16.1137 10.4672 14.2771 9.8397 12.4995 9.80134L11.493 9.80123C9.61791 9.8295 7.84136 10.4002 6.25552 11.4757L5.59246 11.9254L5.00897 11.3764C4.66501 11.0528 4.16243 10.9627 3.7275 11.1468C3.29257 11.3308 3.0073 11.7543 3 12.2265C2.99298 12.6987 3.26526 13.1307 3.69441 13.3278L4.32738 13.6186L4.27399 14.3132C4.261 14.482 4.261 14.6516 4.27693 14.8971C4.27693 17.6071 7.63313 19.9267 11.9852 19.9267C16.3561 19.9267 19.7836 17.5913 19.7865 14.8205C19.7995 14.6516 19.7995 14.482 19.7865 14.3132L19.7348 13.6411L20.3385 13.341ZM6.95075 13.4999C6.95075 12.6715 7.62232 11.9999 8.45075 11.9999C9.27918 11.9999 9.95075 12.6715 9.95075 13.4999C9.95075 14.3283 9.27918 14.9999 8.45075 14.9999C8.05292 14.9999 7.67139 14.8419 7.39009 14.5606C7.10878 14.2793 6.95075 13.8977 6.95075 13.4999ZM13.9507 13.4999C13.9507 12.6715 14.6223 11.9999 15.4507 11.9999C16.2792 11.9999 16.9507 12.6715 16.9507 13.4999C16.9507 14.3283 16.2792 14.9999 15.4507 14.9999C15.0529 14.9999 14.6714 14.8419 14.3901 14.5606C14.1088 14.2793 13.9507 13.8977 13.9507 13.4999ZM11.9665 18.6028C10.5693 18.6028 9.19993 18.2329 8.08503 17.3928C7.94659 17.2241 7.95868 16.9779 8.11299 16.8236C8.2673 16.6693 8.51349 16.6572 8.68218 16.7956C9.62697 17.4886 10.805 17.7856 11.9507 17.7856C13.0965 17.7856 14.2813 17.5112 15.235 16.8271C15.3473 16.7176 15.5095 16.6763 15.6604 16.7188C15.8114 16.7613 15.9282 16.8811 15.9669 17.0331C16.0055 17.1851 15.9517 17.3346 15.8479 17.4556C15.1638 18.2531 13.3636 18.6028 11.9665 18.6028Z"></path></symbol><symbol viewBox="0 0 24 24" id="gamepad-line"><path d="M17 4C20.3137 4 23 6.68629 23 10V14C23 17.3137 20.3137 20 17 20H7C3.68629 20 1 17.3137 1 14V10C1 6.68629 3.68629 4 7 4H17ZM17 6H7C4.8578 6 3.10892 7.68397 3.0049 9.80036L3 10V14C3 16.1422 4.68397 17.8911 6.80036 17.9951L7 18H17C19.1422 18 20.8911 16.316 20.9951 14.1996L21 14V10C21 7.8578 19.316 6.10892 17.1996 6.0049L17 6ZM10 9V11H12V13H9.999L10 15H8L7.999 13H6V11H8V9H10ZM18 13V15H16V13H18ZM16 9V11H14V9H16Z"></path></symbol><symbol viewBox="0 0 24 24" id="github-line"><path d="M5.88401 18.6533C5.58404 18.4526 5.32587 18.1975 5.0239 17.8369C4.91473 17.7065 4.47283 17.1524 4.55811 17.2583C4.09533 16.6833 3.80296 16.417 3.50156 16.3089C2.9817 16.1225 2.7114 15.5499 2.89784 15.0301C3.08428 14.5102 3.65685 14.2399 4.17672 14.4263C4.92936 14.6963 5.43847 15.1611 6.12425 16.0143C6.03025 15.8974 6.46364 16.441 6.55731 16.5529C6.74784 16.7804 6.88732 16.9182 6.99629 16.9911C7.20118 17.1283 7.58451 17.1874 8.14709 17.1311C8.17065 16.7489 8.24136 16.3783 8.34919 16.0358C5.38097 15.3104 3.70116 13.3952 3.70116 9.63971C3.70116 8.40085 4.0704 7.28393 4.75917 6.3478C4.5415 5.45392 4.57433 4.37284 5.06092 3.15636C5.1725 2.87739 5.40361 2.66338 5.69031 2.57352C5.77242 2.54973 5.81791 2.53915 5.89878 2.52673C6.70167 2.40343 7.83573 2.69705 9.31449 3.62336C10.181 3.41879 11.0885 3.315 12.0012 3.315C12.9129 3.315 13.8196 3.4186 14.6854 3.62277C16.1619 2.69 17.2986 2.39649 18.1072 2.52651C18.1919 2.54013 18.2645 2.55783 18.3249 2.57766C18.6059 2.66991 18.8316 2.88179 18.9414 3.15636C19.4279 4.37256 19.4608 5.45344 19.2433 6.3472C19.9342 7.28337 20.3012 8.39208 20.3012 9.63971C20.3012 13.3968 18.627 15.3048 15.6588 16.032C15.7837 16.447 15.8496 16.9105 15.8496 17.4121C15.8496 18.0765 15.8471 18.711 15.8424 19.4225C15.8412 19.6127 15.8397 19.8159 15.8375 20.1281C16.2129 20.2109 16.5229 20.5077 16.6031 20.9089C16.7114 21.4504 16.3602 21.9773 15.8186 22.0856C14.6794 22.3134 13.8353 21.5538 13.8353 20.5611C13.8353 20.4708 13.836 20.3417 13.8375 20.1145C13.8398 19.8015 13.8412 19.599 13.8425 19.4094C13.8471 18.7019 13.8496 18.0716 13.8496 17.4121C13.8496 16.7148 13.6664 16.2602 13.4237 16.051C12.7627 15.4812 13.0977 14.3973 13.965 14.2999C16.9314 13.9666 18.3012 12.8177 18.3012 9.63971C18.3012 8.68508 17.9893 7.89571 17.3881 7.23559C17.1301 6.95233 17.0567 6.54659 17.199 6.19087C17.3647 5.77663 17.4354 5.23384 17.2941 4.57702L17.2847 4.57968C16.7928 4.71886 16.1744 5.0198 15.4261 5.5285C15.182 5.69438 14.8772 5.74401 14.5932 5.66413C13.7729 5.43343 12.8913 5.315 12.0012 5.315C11.111 5.315 10.2294 5.43343 9.40916 5.66413C9.12662 5.74359 8.82344 5.69492 8.57997 5.53101C7.8274 5.02439 7.2056 4.72379 6.71079 4.58376C6.56735 5.23696 6.63814 5.77782 6.80336 6.19087C6.94565 6.54659 6.87219 6.95233 6.61423 7.23559C6.01715 7.8912 5.70116 8.69376 5.70116 9.63971C5.70116 12.8116 7.07225 13.9683 10.023 14.2999C10.8883 14.3971 11.2246 15.4769 10.5675 16.0482C10.3751 16.2156 10.1384 16.7802 10.1384 17.4121V20.5611C10.1384 21.5474 9.30356 22.2869 8.17878 22.09C7.63476 21.9948 7.27093 21.4766 7.36613 20.9326C7.43827 20.5204 7.75331 20.2116 8.13841 20.1276V19.1381C7.22829 19.1994 6.47656 19.0498 5.88401 18.6533Z"></path></symbol><symbol viewBox="0 0 24 24" id="codepen-line"><path d="M16.5 13.2018L13 15.5352V19.1315L19.1972 15L16.5 13.2018ZM14.6972 12L12 10.2018L9.30278 12L12 13.7982L14.6972 12ZM20 10.8685L18.3028 12L20 13.1315V10.8685ZM19.1972 9L13 4.86852V8.46482L16.5 10.7982L19.1972 9ZM7.5 10.7982L11 8.46482V4.86852L4.80278 9L7.5 10.7982ZM4.80278 15L11 19.1315V15.5352L7.5 13.2018L4.80278 15ZM4 13.1315L5.69722 12L4 10.8685V13.1315ZM2 9C2 8.66565 2.1671 8.35342 2.4453 8.16795L11.4453 2.16795C11.7812 1.94402 12.2188 1.94402 12.5547 2.16795L21.5547 8.16795C21.8329 8.35342 22 8.66565 22 9V15C22 15.3344 21.8329 15.6466 21.5547 15.8321L12.5547 21.8321C12.2188 22.056 11.7812 22.056 11.4453 21.8321L2.4453 15.8321C2.1671 15.6466 2 15.3344 2 15V9Z"></path></symbol></svg>